<svg id="Layer_1" data-name="Layer 1" xmlns="http://www.w3.org/2000/svg" viewBox="0 0 93.63 93.63">
  <defs>
    <style>
      .cls-1 {
        fill: #191717;
        fill-rule: evenodd;
      }
    </style>
  </defs>
  <title>github-logo</title>
  <path class="cls-1" d="M186.92,107.44c-25.85,0-46.81,21.49-46.81,48a47.92,47.92,0,0,0,32,45.55c2.34.44,3.19-1,3.19-2.32s0-4.15-.06-8.16c-13,2.9-15.77-6.43-15.77-6.43-2.13-5.55-5.2-7-5.2-7-4.25-3,.32-2.91.32-2.91,4.7.34,7.17,4.94,7.17,4.94,4.18,7.34,11,5.22,13.63,4a10.33,10.33,0,0,1,3-6.42c-10.39-1.21-21.32-5.33-21.32-23.72a18.8,18.8,0,0,1,4.82-12.88c-.49-1.21-2.09-6.09.45-12.7,0,0,3.94-1.29,12.88,4.92a43.2,43.2,0,0,1,23.44,0c8.94-6.21,12.86-4.92,12.86-4.92,2.55,6.61,1,11.49.47,12.7a18.79,18.79,0,0,1,4.81,12.88c0,18.44-10.95,22.5-21.38,23.69,1.68,1.48,3.18,4.41,3.18,8.89,0,6.41-.06,11.59-.06,13.16,0,1.29.85,2.78,3.22,2.31a47.92,47.92,0,0,0,32-45.54C233.74,128.93,212.78,107.44,186.92,107.44Z" transform="translate(-140.11 -107.44)"/>
</svg>
