<svg id="Layer_1" data-name="Layer 1" xmlns="http://www.w3.org/2000/svg" viewBox="0 0 31.52266 30.74425">
  <defs>
    <style>
      .cls-1 {
        fill: #181616;
        fill-rule: evenodd;
      }
    </style>
  </defs>
  <title>github</title>
  <path class="cls-1" d="M25.07156,9.0237a15.76283,15.76283,0,0,0-4.981,30.71715c.78809.14456,1.07575-.342,1.07575-.75974,0-.37416-.01365-1.36534-.02129-2.68066-4.38427.95248-5.30936-2.11279-5.30936-2.11279a4.17372,4.17372,0,0,0-1.74995-2.30553c-1.431-.97793.10827-.95809.10827-.95809A3.31076,3.31076,0,0,1,16.6082,32.5483a3.35582,3.35582,0,0,0,4.587,1.30961,3.36769,3.36769,0,0,1,1.00066-2.10708c-3.4999-.39777-7.17929-1.75-7.17929-7.78974a6.09232,6.09232,0,0,1,1.62233-4.22935,5.669,5.669,0,0,1,.15452-4.17121s1.32335-.4238,4.33424,1.61575a14.93936,14.93936,0,0,1,7.89172,0c3.00906-2.03955,4.33-1.61575,4.33-1.61575a5.66108,5.66108,0,0,1,.15684,4.17121,6.082,6.082,0,0,1,1.6201,4.22935c0,6.05488-3.68509,7.38723-7.19632,7.77745A3.7617,3.7617,0,0,1,29,34.65732c0,2.10708-.01935,3.807-.01935,4.32379,0,.42148.28388.91184,1.08378.7579A15.76367,15.76367,0,0,0,25.07156,9.0237Z" transform="translate(-9.31125 -9.0237)"/>
</svg>
