<svg id="Layer_1" data-name="Layer 1" xmlns="http://www.w3.org/2000/svg" viewBox="0 0 144 144">
  <defs>
    <style>
      .cls-1 {
        fill: #007bb6;
      }

      .cls-2 {
        fill: #fff;
      }
    </style>
  </defs>
  <title>linkedin-logo</title>
  <g>
    <path class="cls-1" d="M133.34,0H10.63A10.51,10.51,0,0,0,0,10.35V133.58A10.51,10.51,0,0,0,10.63,144H133.34A10.53,10.53,0,0,0,144,133.58V10.35A10.53,10.53,0,0,0,133.34,0Z" transform="translate(0 0.03)"/>
    <path class="cls-2" d="M21.35,54H42.71v68.72H21.35ZM32,19.8A12.38,12.38,0,1,1,19.65,32.18,12.38,12.38,0,0,1,32,19.8" transform="translate(0 0.03)"/>
    <path class="cls-2" d="M56.1,54H76.59v9.39h.28c2.86-5.41,9.82-11.1,20.21-11.1,21.63,0,25.63,14.23,25.63,32.73v37.7H101.36V89.26c0-8-.14-18.22-11.1-18.22-11.11,0-12.82,8.68-12.82,17.64v34H56.1Z" transform="translate(0 0.03)"/>
  </g>
</svg>
